<svg xmlns="http://www.w3.org/2000/svg" xmlns:xlink="http://www.w3.org/1999/xlink" version="1.0" x="0px" y="0px" viewBox="0 0 100 125" enable-background="new 0 0 100 100" xml:space="preserve"><g><g><path d="M70.8493958,47.27948c-2.2863617-0.1517982-4.2871246,1.2687607-5.0056839,3.32304l-7.48032-1.3261185    c-0.2397575-2.7922821-1.8505173-5.1933632-4.1553574-6.5346031l2.703598-5.2503586    c0.0064812,0.0010796,0.0122414,0.0042,0.0188408,0.0052795c0.27948,0.0474014,0.5595589,0.0708008,0.8372421,0.0708008    c1.0231171,0,2.0186386-0.3163185,2.8694382-0.9210014c1.0815582-0.7693176,1.7988014-1.9137573,2.0191193-3.2221184    c0.2214012-1.3083611-0.0802727-2.6244011-0.8495979-3.7060795c-0.7693214-1.0815601-1.9137611-1.7988014-3.2221222-2.0191212    c-2.7028809-0.4611588-5.2705193,1.3699207-5.7263985,4.0711212c-0.3140411,1.8615608,0.4710007,3.6424789,1.8637199,4.7301598    l-2.7513618,5.3431206c-0.6332397-0.1531219-1.2909584-0.243-1.9705124-0.243    c-2.2988472,0-4.3834877,0.9295197-5.9017258,2.4307175l-4.1472015-4.1859589    c0.4840813-0.7172394,0.7906799-1.5418816,0.8503227-2.428318c0.1845589-2.7334824-1.8890419-5.1070824-4.6225204-5.2910423    c-1.3323593-0.0949211-2.6044731,0.3421211-3.6028748,1.2146416c-0.9995995,0.8729973-1.5995998,2.0829582-1.6886463,3.4071579    c-0.184679,2.7334824,1.8890476,5.1076813,4.6224003,5.2916412c0.1142464,0.0081596,0.2278786,0.0117607,0.3416405,0.0117607    c0.8190041,0,1.6068001-0.2139626,2.3184013-0.5938797l4.4662781,4.5077972    c-0.6592751,1.1982002-1.0360756,2.5728035-1.0360756,4.0342827c0,1.0640373,0.2068748,2.07864,0.569397,3.0163193    l-6.0441628,4.1817589c-0.8201981-0.8190002-1.9132767-1.371479-3.1577988-1.4552383    c-2.7487202-0.19104-5.1076794,1.8884392-5.2922344,4.6217995c-0.0896454,1.3241997,0.3422356,2.603878,1.2158356,3.6034813    c0.8729992,0.9997177,2.0829659,1.5991211,3.4071598,1.6881561c0.1131592,0.0075607,0.2256012,0.0117645,0.3375587,0.0117645    c2.5880394,0,4.7770805-2.0139618,4.9540825-4.6342812c0.0418777-0.6206398-0.0462036-1.2176399-0.2185211-1.7798424    l5.9812775-4.1381989C44.8899155,57.1080818,47.2941132,58.3993988,50,58.3993988    c0.0818329,0,0.1611557-0.0099602,0.2425156-0.0122375l1.9801178,7.5474014    c-0.2899208,0.1650009-0.5663986,0.3579559-0.8228378,0.5818787c-0.9996033,0.8730011-1.5996017,2.082962-1.6886406,3.4071579    c-0.1845627,2.7334824,1.8890381,5.1070786,4.6223984,5.292244c0.1142387,0.0081558,0.2280006,0.0116348,0.3416481,0.0116348    c1.2011986,0,2.3484001-0.4288788,3.2613525-1.2268753c0.9995995-0.8731232,1.5995979-2.0830841,1.6886444-3.40728    c0.0896339-1.3242035-0.3422432-2.6038818-1.2152443-3.6028824c-0.8730011-0.9996033-2.082962-1.598999-3.40728-1.6880417    c-0.1552811-0.0113983-0.3072014,0.0090027-0.4612808,0.0123596l-1.9252777-7.3379974    c2.831398-0.9310799,5.0051994-3.3246002,5.6128769-6.2864418l7.3840828,1.309082    c0.349678,2.2431602,2.2084808,4.0348778,4.566597,4.1935196c0.1136398,0.007679,0.2256012,0.0117607,0.3375626,0.0117607    c2.5886383,0,4.7776794-2.0138397,4.9546814-4.6341629C75.6564713,49.8371582,73.582756,47.4634399,70.8493958,47.27948z     M55.2241936,32.1699219c0.212162-1.2522011,1.302002-2.1404419,2.5318794-2.1404419    c0.1417198,0,0.2847595,0.0117607,0.4288826,0.0357609c0.6767998,0.1142387,1.2679176,0.4851589,1.665844,1.0441189    c0.3972015,0.55896,0.5536728,1.2392387,0.4394341,1.9154396c-0.1142349,0.6767998-0.4851608,1.2685204-1.0441208,1.6658401    c-0.5601578,0.3972015-1.2428398,0.5518799-1.9160385,0.4400406    C55.9331551,34.8945198,54.9886322,33.5668411,55.2241936,32.1699219z M32.4599533,63.2615585    c-0.6849594-0.0463181-1.3101597-0.3562775-1.7619534-0.8731194c-0.451086-0.5167198-0.6744003-1.1782799-0.628685-1.8626404    c0.0920391-1.3540802,1.2234001-2.3953171,2.561758-2.3953171c0.0579605,0,0.1160431,0.0022774,0.1746025,0.0058784    c1.4132385,0.09552,2.4849586,1.3223991,2.3900375,2.7351608C35.0996017,62.2847595,33.8709145,63.3540802,32.4599533,63.2615585z     M56.6024017,68.569519c0.4516716,0.516243,0.6743965,1.177803,0.6286736,1.8621597    c-0.0463219,0.6843643-0.3562737,1.3101578-0.8731232,1.7612381c-0.5167198,0.4518051-1.1723976,0.6733246-1.8626366,0.6287994    c-1.4132423-0.0961151-2.4849625-1.3237152-2.3900414-2.7363586c0.0463257-0.6843567,0.3562813-1.3095551,0.8730011-1.7607574    c0.5168381-0.4517975,1.1859589-0.6755981,1.8627586-0.6280823C55.526001,67.7427216,56.1511993,68.052681,56.6024017,68.569519z     M50,55.9994011c-3.3081665,0-6-2.6918411-6-6c0-3.30756,2.6918335-5.9988022,6-5.9988022c3.3081551,0,6,2.6912422,6,5.9988022    C56,53.30756,53.3081551,55.9994011,50,55.9994011z M70.3414307,54.7988014    c-1.4133606-0.09552-2.4849548-1.322403-2.3900375-2.7357597c0.0961227-1.4132423,1.3207169-2.4772835,2.7362366-2.3894424    c1.4133606,0.09552,2.4849625,1.3225212,2.3900452,2.7351608C72.9816742,53.8221207,71.7540741,54.875,70.3414307,54.7988014z"/><path d="M50,16.3999996c-18.5274048,0-33.5999985,15.0726013-33.5999985,33.5999985S31.4725952,83.5999985,50,83.5999985    S83.5999985,68.5273972,83.5999985,50S68.5273972,16.3999996,50,16.3999996z M50,81.1999969    c-17.2036858,0-31.2000008-13.996315-31.2000008-31.1999969S32.7963142,18.7999992,50,18.7999992    S81.1999969,32.7963219,81.1999969,50S67.2036743,81.1999969,50,81.1999969z"/></g></g><text x="0" y="115" fill="#000000" font-size="5px" font-weight="bold" font-family="'Helvetica Neue', Helvetica, Arial-Unicode, Arial, Sans-serif">Created by Yu luck</text><text x="0" y="120" fill="#000000" font-size="5px" font-weight="bold" font-family="'Helvetica Neue', Helvetica, Arial-Unicode, Arial, Sans-serif">from the Noun Project</text></svg>